<svg width="17" height="17" viewBox="0 0 17 17" fill="none" xmlns="http://www.w3.org/2000/svg">
<path d="M11.4453 3.16825L6.57819 8.11351C6.47145 8.22141 6.41157 8.36706 6.41157 8.51884C6.41157 8.67062 6.47145 8.81628 6.57819 8.92418L11.4443 13.8705C11.551 13.9791 11.6108 14.1252 11.6108 14.2774C11.6108 14.4296 11.551 14.5758 11.4443 14.6843C11.3922 14.7378 11.3299 14.7803 11.2611 14.8093C11.1923 14.8383 11.1184 14.8532 11.0437 14.8532C10.969 14.8532 10.8951 14.8383 10.8263 14.8093C10.7575 14.7803 10.6952 14.7378 10.6431 14.6843L5.77703 9.74012C5.45727 9.41446 5.27813 8.9763 5.27813 8.5199C5.27813 8.0635 5.45727 7.62534 5.77703 7.29968L10.6431 2.35548C10.6953 2.30185 10.7576 2.25923 10.8265 2.23012C10.8954 2.20101 10.9694 2.18602 11.0442 2.18602C11.119 2.18602 11.1931 2.20101 11.262 2.23012C11.3308 2.25923 11.3932 2.30185 11.4453 2.35548C11.552 2.46405 11.6118 2.61017 11.6118 2.76239C11.6118 2.91461 11.552 3.06074 11.4453 3.16931" fill="#FF9204"/>
</svg>
