<svg width="62" height="62" viewBox="0 0 62 62" fill="none" xmlns="http://www.w3.org/2000/svg">
<path d="M56.1875 7.75C56.1875 7.23614 55.9834 6.74333 55.62 6.37998C55.2567 6.01663 54.7639 5.8125 54.25 5.8125C43.5744 5.8125 32.6202 17.8516 26.5365 25.8245C24.3637 25.159 22.0652 25.0124 19.8256 25.3965C17.5859 25.7805 15.4675 26.6844 13.6405 28.0356C11.8136 29.3868 10.3289 31.1476 9.30592 33.1767C8.2829 35.2057 7.74999 37.4464 7.75 39.7188C7.75 47.1975 3.01765 50.5518 2.79242 50.7068C2.44873 50.9389 2.18857 51.2751 2.0502 51.6661C1.91183 52.057 1.90256 52.482 2.02374 52.8786C2.14492 53.2753 2.39016 53.6225 2.7234 53.8694C3.05663 54.1162 3.46029 54.2496 3.875 54.25H22.2812C24.5536 54.25 26.7943 53.7171 28.8233 52.6941C30.8524 51.6711 32.6132 50.1864 33.9644 48.3595C35.3156 46.5325 36.2195 44.4141 36.6035 42.1744C36.9876 39.9348 36.841 37.6363 36.1755 35.4635C44.1508 29.3798 56.1875 18.4256 56.1875 7.75ZM30.133 27.5004C30.9629 26.4251 31.7774 25.4119 32.5766 24.4609C34.533 25.7824 36.2176 27.467 37.5391 29.4234C36.5865 30.221 35.5733 31.0355 34.4996 31.867C33.3708 30.1178 31.8822 28.6292 30.133 27.5004ZM40.4744 26.8513C39.0115 24.7875 37.2101 22.986 35.1462 21.5232C42.843 13.1605 48.6482 10.6248 52.0752 9.92C51.3849 13.3494 48.8371 19.1546 40.4744 26.8513Z" fill="#FF9204"/>
</svg>
