<svg width="16" height="16" viewBox="0 0 16 16" fill="none" xmlns="http://www.w3.org/2000/svg">
<path d="M15.465 10.8594C15.4653 10.8565 15.4653 10.8535 15.465 10.8506L14.4406 5.59V5.57875C14.2825 4.71503 13.8267 3.93405 13.1524 3.37157C12.4781 2.80909 11.6281 2.5007 10.75 2.5H5.24311C4.36258 2.49966 3.51012 2.80981 2.83567 3.37589C2.16122 3.94198 1.70796 4.72774 1.55561 5.595L0.53624 10.8506C0.535947 10.8535 0.535947 10.8565 0.53624 10.8594C0.453266 11.3305 0.52262 11.8158 0.734231 12.2449C0.945842 12.6739 1.28869 13.0244 1.71301 13.2453C2.13733 13.4662 2.62102 13.5462 3.09386 13.4735C3.5667 13.4009 4.00408 13.1794 4.34249 12.8413L4.36436 12.8181L6.84499 10H9.15749L11.6394 12.8181C11.6462 12.8262 11.6537 12.8338 11.6612 12.8413C12.083 13.2621 12.6542 13.4989 13.25 13.5C13.5784 13.4998 13.9028 13.4277 14.2004 13.2887C14.498 13.1498 14.7615 12.9474 14.9726 12.6957C15.1836 12.4441 15.337 12.1493 15.4219 11.8321C15.5069 11.5148 15.5214 11.1828 15.4644 10.8594H15.465ZM6.49999 7H5.99999V7.5C5.99999 7.63261 5.94731 7.75979 5.85354 7.85355C5.75977 7.94732 5.6326 8 5.49999 8C5.36738 8 5.2402 7.94732 5.14644 7.85355C5.05267 7.75979 4.99999 7.63261 4.99999 7.5V7H4.49999C4.36738 7 4.2402 6.94732 4.14644 6.85355C4.05267 6.75979 3.99999 6.63261 3.99999 6.5C3.99999 6.36739 4.05267 6.24022 4.14644 6.14645C4.2402 6.05268 4.36738 6 4.49999 6H4.99999V5.5C4.99999 5.36739 5.05267 5.24022 5.14644 5.14645C5.2402 5.05268 5.36738 5 5.49999 5C5.6326 5 5.75977 5.05268 5.85354 5.14645C5.94731 5.24022 5.99999 5.36739 5.99999 5.5V6H6.49999C6.6326 6 6.75977 6.05268 6.85354 6.14645C6.94731 6.24022 6.99999 6.36739 6.99999 6.5C6.99999 6.63261 6.94731 6.75979 6.85354 6.85355C6.75977 6.94732 6.6326 7 6.49999 7ZM8.99999 6.5C8.99999 6.36739 9.05267 6.24022 9.14644 6.14645C9.2402 6.05268 9.36738 6 9.49999 6H11C11.1326 6 11.2598 6.05268 11.3535 6.14645C11.4473 6.24022 11.5 6.36739 11.5 6.5C11.5 6.63261 11.4473 6.75979 11.3535 6.85355C11.2598 6.94732 11.1326 7 11 7H9.49999C9.36738 7 9.2402 6.94732 9.14644 6.85355C9.05267 6.75979 8.99999 6.63261 8.99999 6.5ZM14.2731 11.9669C14.1795 12.1017 14.06 12.2166 13.9216 12.3049C13.7832 12.3932 13.6286 12.4532 13.4669 12.4812C13.2712 12.5155 13.0702 12.5028 12.8804 12.4442C12.6906 12.3857 12.5174 12.2829 12.375 12.1444L10.4875 10H10.75C11.3883 10.0001 12.0161 9.83722 12.5739 9.52682C13.1317 9.21642 13.6011 8.76876 13.9375 8.22625L14.4837 11.0387C14.5116 11.1997 14.5073 11.3646 14.4711 11.5238C14.435 11.6831 14.3677 11.8337 14.2731 11.9669Z" fill="#FF9204"/>
</svg>
