<svg width="337" height="241" viewBox="0 0 337 241" fill="none" xmlns="http://www.w3.org/2000/svg">
<g clip-path="url(#clip0_7419_255)">
<path d="M1.38718 55.3221C1.44509 50.9404 3.93224 46.9997 7.75194 45.2363L103.676 0.947532C105.841 -0.0534694 108.266 -0.269309 110.564 0.337922L328.94 57.9786C333.754 59.2494 337.097 63.8403 336.998 69.0518L335.348 156.455C335.286 159.651 333.927 162.665 331.614 164.741L249.575 238.319C246.851 240.761 243.141 241.602 239.699 240.562L7.70053 170.27C3.0861 168.873 -0.0674048 164.406 0.00109433 159.364L1.38718 55.3221Z" fill="#BD4212"/>
<path d="M328.769 157.054C320.538 165.216 245.6 240.76 241.438 227.927C237.276 215.091 248.107 169.298 245.038 157.054C241.969 144.81 242.222 127.424 251.001 115.979C259.783 104.534 297.205 76.2453 316.434 70.5679C335.663 64.8907 325.683 74.8394 328.769 97.7934C331.852 120.745 336.999 148.893 328.769 157.054Z" fill="#AA3D12"/>
<path d="M254.684 55.7608C247.966 55.2097 234.472 55.7608 234.472 55.7608L243.671 63.6423C243.671 63.6423 204.626 56.5636 208.848 57.911C227.026 63.7076 275.713 79.5471 280.366 84.3696C286.099 90.3099 284.307 95.4271 284.307 95.4271V107.274L292.438 129.102L287.598 107.078L291.383 99.4714L296.377 101.521L297.035 112.734L301.474 97.7933L303.71 90.8184L310.159 84.3696C310.159 84.3696 311.399 80.5817 308.58 74.3939C305.758 68.2061 303.451 66.4067 294.493 63.9571C285.533 61.5077 279.652 57.8099 254.684 55.7608Z" fill="#D1592A"/>
<path d="M14.2176 52.4565C-2.18819 52.4565 14.7746 91.7856 12.8014 119.785C10.8285 147.784 -2.00402 161.488 6.32745 164.454C8.8468 165.349 36.9087 169.049 64.3751 179.347C112.212 197.283 225.67 227.212 225.67 227.212C225.67 227.212 232.584 230.348 236.995 223.478C239.065 220.254 229.122 197.035 227.555 173.575C225.781 147.029 239.35 138.153 232.198 120.101C225.048 102.051 30.6233 52.4565 14.2176 52.4565Z" fill="#AA3D12"/>
<path d="M12.5679 54.7013H20.6485L11.0318 56.1072L9.21083 61.2851L19.6202 76.74L48.0957 82.6916H29.1449L44.5694 89.6106L7.21631 102.946L16.4775 111.935C16.4775 111.935 45.2014 113.064 45.2014 113.381C45.2014 113.698 35.8289 136.034 35.8289 136.389C35.8289 136.744 34.2928 148.893 34.2928 148.893L67.4256 165.115C67.4256 165.115 68.968 170.178 72.1536 170.305C75.3393 170.43 88.8162 170.43 88.8162 170.43L90.8642 178.975L105.958 191.664L232.099 234.679L194.952 215.091L237.276 223.328L174.418 199.636L189.347 200.616L160.667 183.179L168.525 184.214C168.525 184.214 161.994 172.078 153.499 169.833C145.002 167.59 137.492 148.893 137.492 148.893V142.091L135.307 126.942L104.287 120.818L93.4586 108.226L85.8757 93.7313L45.6105 68.4582L20.52 54.0828" fill="#95350F"/>
<path d="M156.369 97.7932L208.053 112.232L214.674 113.131C214.674 113.131 218.554 115.673 221.114 120.5C223.675 125.328 224.919 132.442 224.919 132.442L219.254 148.893L219.342 157.054L208.053 148.893L189.696 144.38H217.42L208.053 140.191C208.053 140.191 217.718 140.191 216.904 140.191C216.092 140.191 187.609 135.192 187.609 135.192L208.053 131.937L168.5 111.908H174.327L135.928 99.5162L160.667 105.596L156.369 97.7932Z" fill="#7A2A0B"/>
<path d="M11.214 57.1328L3.54248 97.7933L7.21658 148.893V157.054L23.4229 172.01L113.744 196.538L143.835 201.07L54.3342 97.7933L57.5604 82.6915L11.214 57.1328Z" fill="#7A2A0B"/>
<path d="M120.409 11.9601C86.7967 10.75 33.9031 39.9888 33.9031 39.9888C33.9031 39.9888 2.96398 42.8116 50.7909 57.1329C98.6181 71.452 237.276 97.7934 237.276 97.7934C237.276 97.7934 252.062 102.474 270.352 92.3075C288.64 82.1428 325.165 69.9629 310.431 57.1329C295.693 44.3029 249.322 53.1539 200.638 40.9896C151.953 28.8254 154.025 13.1703 120.409 11.9601Z" fill="#D1592A"/>
<path d="M101.176 43.9047C101.735 43.9496 98.3821 43.5402 97.5333 43.2074C93.2976 41.5474 89.8077 40.2 85.2331 38.9448C81.9655 38.0497 56.0564 39.1901 62.7726 48.6485C67.1215 54.7733 79.1204 53.7745 85.6045 55.7832C109.644 63.2261 129.992 71.994 155.933 71.9827C161.47 71.9804 184.512 68.2083 185.271 59.4496C185.91 52.0967 175.076 52.2226 169.697 52.1596C153.471 51.9707 137.48 56.0891 121.155 56.2398C112.123 56.3253 112.816 52.3958 108.081 46.6263C106.475 44.6695 98.7225 43.7044 101.176 43.9047Z" fill="#DF7146"/>
</g>
<defs>
<clipPath id="clip0_7419_255">
<rect width="337" height="241" fill="white"/>
</clipPath>
</defs>
</svg>
