<svg width="16" height="16" viewBox="0 0 16 16" fill="none" xmlns="http://www.w3.org/2000/svg">
<path d="M15.9762 3.22814C15.9654 3.04487 15.8877 2.87194 15.7579 2.74212C15.6281 2.6123 15.4551 2.53461 15.2719 2.52376C11.9425 2.32814 9.25937 3.35876 8.09437 5.28251C7.33562 6.53251 7.30937 8.04314 8.00312 9.48876C7.66543 9.91951 7.40568 10.406 7.23562 10.9263L6.44437 10.135C6.89374 9.08689 6.84624 8.00314 6.29437 7.09189C5.42062 5.64751 3.43062 4.87501 0.971869 5.01689C0.788497 5.02775 0.615488 5.10553 0.485655 5.23548C0.355822 5.36543 0.278194 5.53851 0.267494 5.72189C0.124994 8.18064 0.897494 10.1706 2.34062 11.0444C2.83006 11.3427 3.39243 11.4999 3.96562 11.4988C4.45431 11.4948 4.93707 11.3913 5.38437 11.1944L6.99999 12.8125V14.25C6.99999 14.4489 7.07901 14.6397 7.21966 14.7803C7.36032 14.921 7.55108 15 7.74999 15C7.94891 15 8.13967 14.921 8.28032 14.7803C8.42098 14.6397 8.49999 14.4489 8.49999 14.25V12.4069C8.49845 11.7365 8.70576 11.0822 9.09312 10.535C9.72059 10.8323 10.4051 10.9898 11.0994 10.9969C11.8464 10.9986 12.5794 10.794 13.2175 10.4056C15.1406 9.24064 16.1725 6.55751 15.9762 3.22814ZM3.11749 9.76126C2.29312 9.26126 1.79374 8.04501 1.75312 6.50314C3.29499 6.54376 4.51187 7.04314 5.01124 7.86751C5.20653 8.18516 5.28664 8.5603 5.23812 8.93001L4.52999 8.21939C4.3891 8.07849 4.198 7.99933 3.99874 7.99933C3.79949 7.99933 3.60839 8.07849 3.46749 8.21939C3.3266 8.36028 3.24744 8.55138 3.24744 8.75064C3.24744 8.94989 3.3266 9.14099 3.46749 9.28189L4.17624 9.99064C3.80754 10.0362 3.4343 9.9553 3.11749 9.76126ZM12.4406 9.12501C11.7744 9.52814 11.0031 9.60439 10.2025 9.36001L12.5306 7.03251C12.6715 6.89161 12.7507 6.70052 12.7507 6.50126C12.7507 6.302 12.6715 6.11091 12.5306 5.97001C12.3897 5.82911 12.1986 5.74996 11.9994 5.74996C11.8001 5.74996 11.609 5.82911 11.4681 5.97001L9.13999 8.29751C8.89812 7.50001 8.97437 6.72564 9.37499 6.06251C10.1687 4.75001 12.0406 4.00001 14.4575 4.00001H14.5C14.5087 6.43751 13.7587 8.32376 12.4406 9.12501Z" fill="#FF9204"/>
</svg>
