<svg width="21" height="21" viewBox="0 0 21 21" fill="none" xmlns="http://www.w3.org/2000/svg">
<path d="M4.2154 10.1169H5.90156M5.90156 7.58771H14.3324C15.9089 7.58771 16.6964 7.58771 17.2831 7.92663C17.6676 8.1486 17.9869 8.46787 18.2088 8.85233C18.5478 9.43911 18.5478 10.2265 18.5478 11.8031C18.5478 13.3797 18.5478 14.1671 18.2088 14.7539C17.9869 15.1384 17.6676 15.4576 17.2831 15.6796C16.6964 16.0185 15.9089 16.0185 14.3324 16.0185H14.0002C13.421 16.0185 13.1318 16.0185 12.8612 15.9587C12.4985 15.8781 12.1579 15.7186 11.8638 15.4916C11.6446 15.3213 11.4591 15.0996 11.0882 14.6544C10.7931 14.3003 10.6447 14.1233 10.4753 14.0432C10.3632 13.9905 10.2408 13.9632 10.117 13.9632C9.9931 13.9632 9.87077 13.9905 9.75865 14.0432C9.58919 14.1224 9.44165 14.2995 9.14573 14.6544C8.77478 15.0996 8.5893 15.3213 8.3701 15.4916C8.07599 15.7186 7.73546 15.8781 7.37273 15.9587C7.10295 16.0185 6.81293 16.0185 6.23373 16.0185H5.90156C4.325 16.0185 3.53756 16.0185 2.95078 15.6796C2.56632 15.4576 2.24705 15.1384 2.02508 14.7539C1.68616 14.1671 1.68616 13.3797 1.68616 11.8031C1.68616 10.2265 1.68616 9.43911 2.02508 8.85233C2.24705 8.46787 2.56632 8.1486 2.95078 7.92663C3.53756 7.58771 4.325 7.58771 5.90156 7.58771Z" stroke="#FF9204" stroke-width="1.5" stroke-linecap="round" stroke-linejoin="round"/>
<path d="M18.5478 10.96V9.97195C18.5478 8.99987 18.5478 8.51342 18.4188 8.05984C18.3476 7.81093 18.248 7.57104 18.122 7.34491C17.8935 6.93348 17.5487 6.58951 16.8616 5.90155C16.1745 5.2136 15.8297 4.86962 15.4182 4.64115C15.1921 4.51511 14.9522 4.41554 14.7033 4.34438C14.2497 4.21539 13.7633 4.21539 12.7912 4.21539H7.44271C6.47064 4.21539 5.98418 4.21539 5.5306 4.34438C5.28169 4.41554 5.0418 4.51511 4.81567 4.64115C4.40425 4.86962 4.06027 5.21444 3.37232 5.90155C2.68436 6.58866 2.34039 6.93348 2.11191 7.34491C1.98588 7.57104 1.8863 7.81093 1.81515 8.05984C1.68616 8.51342 1.68616 8.99987 1.68616 9.97195V10.96" stroke="#FF9204" stroke-width="1.5" stroke-linecap="round" stroke-linejoin="round"/>
</svg>
